<svg width="22" height="22" viewBox="0 0 22 22" fill="none" xmlns="http://www.w3.org/2000/svg">
<path fill-rule="evenodd" clip-rule="evenodd" d="M5 1H17C19.2091 1 21 2.79086 21 5V17C21 19.2091 19.2091 21 17 21H5C2.79086 21 1 19.2091 1 17V5C1 2.79086 2.79086 1 5 1ZM0 5C0 2.23858 2.23858 0 5 0H17C19.7614 0 22 2.23858 22 5V17C22 19.7614 19.7614 22 17 22H5C2.23858 22 0 19.7614 0 17V5ZM8.99433 14.4131L17.1426 6.31666C17.5675 5.89445 18.2564 5.89445 18.6813 6.31666C19.1062 6.73888 19.1062 7.42311 18.6813 7.84533L9.80293 16.6673C9.35648 17.1109 8.63279 17.1109 8.18633 16.6673L3.31869 11.8199C2.89377 11.3977 2.89377 10.7134 3.31869 10.2912C3.74361 9.86899 4.43222 9.86899 4.85714 10.2912L8.99433 14.4131Z" fill="#34C759"/>
</svg>
