<svg width="304" height="66" viewBox="0 0 304 66" fill="none" xmlns="http://www.w3.org/2000/svg">
<path d="M20.688 15.8V35.144C20.688 39.368 18.704 41.48 14.736 41.48H8.352C4.384 41.48 2.4 39.368 2.4 35.144V15.8C2.4 11.576 4.384 9.464 8.352 9.464H14.736C18.704 9.464 20.688 11.576 20.688 15.8ZM13.968 35.912V14.984C13.968 14.728 13.872 14.504 13.68 14.312C13.52 14.12 13.312 14.024 13.056 14.024H10.032C9.776 14.024 9.552 14.12 9.36 14.312C9.2 14.504 9.12 14.728 9.12 14.984V35.912C9.12 36.168 9.2 36.392 9.36 36.584C9.552 36.776 9.776 36.872 10.032 36.872H13.056C13.312 36.872 13.52 36.776 13.68 36.584C13.872 36.392 13.968 36.168 13.968 35.912ZM36.786 41.48H35.778C34.146 41.48 32.834 41.096 31.842 40.328V48.632H25.41V17.576H30.834V19.304C31.826 17.832 33.474 17.096 35.778 17.096H36.786C40.754 17.096 42.738 19.208 42.738 23.432V35.144C42.738 39.368 40.754 41.48 36.786 41.48ZM31.842 22.664V35.912C31.842 36.168 31.922 36.392 32.082 36.584C32.274 36.776 32.498 36.872 32.754 36.872H35.394C35.65 36.872 35.858 36.776 36.018 36.584C36.21 36.392 36.306 36.168 36.306 35.912V22.664C36.306 22.408 36.21 22.184 36.018 21.992C35.858 21.8 35.65 21.704 35.394 21.704H32.754C32.498 21.704 32.274 21.8 32.082 21.992C31.922 22.184 31.842 22.408 31.842 22.664ZM58.4891 17.096C62.4571 17.096 64.4411 19.208 64.4411 23.432V31.016H53.5451V35.912C53.5451 36.168 53.6251 36.392 53.7851 36.584C53.9771 36.776 54.2011 36.872 54.4571 36.872H57.0971C57.3531 36.872 57.5611 36.776 57.7211 36.584C57.9131 36.392 58.0091 36.168 58.0091 35.912V33.32H64.4411V35.144C64.4411 39.368 62.4571 41.48 58.4891 41.48H53.0651C49.0971 41.48 47.1131 39.368 47.1131 35.144V23.432C47.1131 19.208 49.0971 17.096 53.0651 17.096H58.4891ZM53.5451 26.792H58.0091V22.472C58.0091 22.216 57.9131 21.992 57.7211 21.8C57.5611 21.608 57.3531 21.512 57.0971 21.512H54.4571C54.2011 21.512 53.9771 21.608 53.7851 21.8C53.6251 21.992 53.5451 22.216 53.5451 22.472V26.792ZM74.4045 41H67.9725V17.576H73.8285V18.776C74.8205 17.656 76.3245 17.096 78.3405 17.096H79.3485C83.3165 17.096 85.3005 19.208 85.3005 23.432V41H78.8685V22.664C78.8685 22.408 78.7725 22.184 78.5805 21.992C78.4205 21.8 78.2125 21.704 77.9565 21.704H75.3165C75.0605 21.704 74.8365 21.8 74.6445 21.992C74.4845 22.184 74.4045 22.408 74.4045 22.664V41ZM107.546 15.656V9.944H124.346V15.656H119.306V41H112.586V15.656H107.546ZM137.16 17.096H138.408V23.336H135.24C134.152 23.336 133.608 23.896 133.608 25.016V41H127.176V17.576H133.032V19.832C133.96 18.008 135.336 17.096 137.16 17.096ZM153.189 17.576H158.613V41H153.189V39.272C152.197 40.744 150.549 41.48 148.245 41.48H147.237C143.269 41.48 141.285 39.368 141.285 35.144V23.432C141.285 19.208 143.269 17.096 147.237 17.096H148.245C150.549 17.096 152.197 17.832 153.189 19.304V17.576ZM152.181 35.912V22.664C152.181 22.408 152.085 22.184 151.893 21.992C151.733 21.8 151.525 21.704 151.269 21.704H148.629C148.373 21.704 148.149 21.8 147.957 21.992C147.797 22.184 147.717 22.408 147.717 22.664V35.912C147.717 36.168 147.797 36.392 147.957 36.584C148.149 36.776 148.373 36.872 148.629 36.872H151.269C151.525 36.872 151.733 36.776 151.893 36.584C152.085 36.392 152.181 36.168 152.181 35.912ZM180.316 26.792H173.884V22.664C173.884 22.408 173.788 22.184 173.596 21.992C173.436 21.8 173.228 21.704 172.972 21.704H170.332C170.076 21.704 169.852 21.8 169.66 21.992C169.5 22.184 169.42 22.408 169.42 22.664V35.912C169.42 36.168 169.5 36.392 169.66 36.584C169.852 36.776 170.076 36.872 170.332 36.872H172.972C173.228 36.872 173.436 36.776 173.596 36.584C173.788 36.392 173.884 36.168 173.884 35.912V31.784H180.316V35.144C180.316 39.368 178.332 41.48 174.364 41.48H168.94C164.972 41.48 162.988 39.368 162.988 35.144V23.432C162.988 19.208 164.972 17.096 168.94 17.096H174.364C178.332 17.096 180.316 19.208 180.316 23.432V26.792ZM202.842 17.576L198.042 28.568L203.61 41H197.178L192.762 31.256H190.842V41H184.41V9.944H190.842V25.976H193.002L196.506 17.576H202.842ZM217.677 17.096C221.645 17.096 223.629 19.208 223.629 23.432V31.016H212.733V35.912C212.733 36.168 212.813 36.392 212.973 36.584C213.165 36.776 213.389 36.872 213.645 36.872H216.285C216.541 36.872 216.749 36.776 216.909 36.584C217.101 36.392 217.197 36.168 217.197 35.912V33.32H223.629V35.144C223.629 39.368 221.645 41.48 217.677 41.48H212.253C208.285 41.48 206.301 39.368 206.301 35.144V23.432C206.301 19.208 208.285 17.096 212.253 17.096H217.677ZM212.733 26.792H217.197V22.472C217.197 22.216 217.101 21.992 216.909 21.8C216.749 21.608 216.541 21.512 216.285 21.512H213.645C213.389 21.512 213.165 21.608 212.973 21.8C212.813 21.992 212.733 22.216 212.733 22.472V26.792ZM237.144 17.096H238.392V23.336H235.224C234.136 23.336 233.592 23.896 233.592 25.016V41H227.16V17.576H233.016V19.832C233.944 18.008 235.32 17.096 237.144 17.096Z" fill="#02A4D2"/>
<rect x="95.5" y="0.5" width="160" height="50" stroke="#00C9BD"/>
</svg>
