<?xml version="1.0" encoding="utf-8"?>
<!-- Generator: Adobe Illustrator 23.0.0, SVG Export Plug-In . SVG Version: 6.00 Build 0)  -->
<svg version="1.1" id="Слой_1" xmlns="http://www.w3.org/2000/svg" xmlns:xlink="http://www.w3.org/1999/xlink" x="0px" y="0px"
	 viewBox="0 0 243.19 52.86" style="enable-background:new 0 0 243.19 52.86;" xml:space="preserve">
<style type="text/css">
	.st0{fill:none;}
	.st1{fill:#FFFFFF;}
</style>
<g>
	<path class="st0" d="M67.47,29.33c-0.91,0.77-1.36,1.83-1.36,3.16c0,1.51,0.54,2.67,1.61,3.49c1.07,0.82,2.37,1.23,3.9,1.23
		c1.89,0,3.47-0.53,4.72-1.59c1.26-1.06,1.88-2.42,1.88-4.06v-3.39h-6.67C69.74,28.17,68.38,28.56,67.47,29.33z"/>
	<path class="st0" d="M236.68,23.3c-0.22-2.01-0.82-3.67-1.81-4.96c-1.28-1.66-2.99-2.49-5.13-2.49c-2.3,0-4.09,0.8-5.36,2.41
		c-1,1.26-1.6,2.94-1.82,5.04c-0.06,0.58-0.09,1.18-0.09,1.83v1.83c0,2.92,0.64,5.19,1.91,6.83c1.28,1.63,3.06,2.45,5.36,2.45
		c2.2,0,3.93-0.82,5.17-2.45c1.25-1.63,1.87-3.91,1.87-6.83v-1.83C236.79,24.49,236.75,23.88,236.68,23.3z"/>
	<path class="st0" d="M46.29,17.69c-1.26-1.48-2.89-2.22-4.9-2.22c-2.03,0-3.68,0.74-4.94,2.22c-1.27,1.48-1.9,3.33-1.9,5.55v0.06
		h13.62v-0.06C48.17,21.02,47.54,19.17,46.29,17.69z"/>
	<path class="st0" d="M28.2,24.33l0,0.25c0-0.44,0.02-0.86,0.05-1.28L28.2,24.33z"/>
	<path class="st0" d="M179.59,10.13c-1.81-2.13-4.17-3.2-7.09-3.2s-5.28,1.07-7.1,3.2c-1.82,2.14-2.72,5.18-2.72,9.14v4.03v1.45
		c0,3.94,0.9,6.94,2.71,9c1.81,2.06,4.18,3.09,7.12,3.09s5.3-1.02,7.1-3.07c1.8-2.05,2.7-5.05,2.7-9.01V23.3v-4.03
		C182.3,15.31,181.4,12.26,179.59,10.13z"/>
	<path class="st1" d="M54.46,27.79v-2.93c0-0.54-0.02-1.06-0.05-1.56c-0.25-3.64-1.4-6.61-3.45-8.9c-2.34-2.61-5.54-3.91-9.59-3.91
		c-4.02,0-7.22,1.27-9.59,3.83c-2.14,2.29-3.3,5.29-3.52,8.98c-0.02,0.42-0.05,0.84-0.05,1.28v3.1c0,4.5,1.21,8.04,3.62,10.62
		c2.42,2.58,5.68,3.87,9.8,3.87c3.57,0,6.42-0.88,8.55-2.65c2.13-1.77,3.44-3.99,3.94-6.68H48c-0.41,1.33-1.15,2.38-2.23,3.13
		c-1.08,0.75-2.43,1.13-4.06,1.13c-2.18,0-3.92-0.78-5.22-2.35c-1.29-1.56-1.94-3.64-1.94-6.23v-0.72H54.46z M34.55,23.24
		c0-2.22,0.63-4.07,1.9-5.55c1.27-1.48,2.91-2.22,4.94-2.22c2.01,0,3.64,0.74,4.9,2.22c1.26,1.48,1.88,3.33,1.88,5.55v0.06H34.55
		V23.24z"/>
	<path class="st1" d="M81.3,13.19c-2.18-1.76-5.05-2.64-8.61-2.64c-3.86,0-6.78,0.89-8.75,2.67c-1.97,1.78-3.02,4.08-3.16,6.9h6.03
		c0.12-1.39,0.67-2.5,1.67-3.32s2.35-1.23,4.07-1.23c1.8,0,3.19,0.47,4.19,1.42c1,0.95,1.49,2.29,1.49,4.03v2.29v0.64h-7.77
		c-3.48,0-6.15,0.79-8.01,2.38c-1.87,1.58-2.8,3.76-2.8,6.52c0,2.82,0.92,5.07,2.77,6.75c1.84,1.68,4.26,2.52,7.26,2.52
		c4.1,0,6.95-1.41,8.55-4.23h0.23v3.77h6.12V23.3v-2.52C84.57,17.48,83.48,14.95,81.3,13.19z M78.22,31.56c0,1.64-0.63,3-1.88,4.06
		c-1.26,1.06-2.83,1.59-4.72,1.59c-1.53,0-2.83-0.41-3.9-1.23c-1.07-0.82-1.61-1.99-1.61-3.49c0-1.33,0.45-2.39,1.36-3.16
		c0.91-0.77,2.27-1.16,4.09-1.16h6.67V31.56z"/>
	<path class="st1" d="M110.74,32.4c-0.23,1.27-0.86,2.33-1.87,3.17c-1.02,0.84-2.36,1.26-4.04,1.26c-2.18,0-3.92-0.84-5.2-2.51
		s-1.93-3.93-1.93-6.77v-2.61c0-0.58,0.03-1.12,0.08-1.65c0.2-2.06,0.8-3.75,1.8-5.04c1.26-1.62,2.99-2.43,5.22-2.43
		c1.47,0,2.73,0.47,3.78,1.41c1.05,0.94,1.71,2.08,1.99,3.43h6.09c-0.12-2.82-1.29-5.22-3.51-7.2s-5.12-2.97-8.69-2.97
		c-4.08,0-7.3,1.32-9.67,3.96c-2.08,2.32-3.25,5.27-3.5,8.85c-0.03,0.49-0.05,0.99-0.05,1.51v2.75c0,4.37,1.18,7.89,3.54,10.58
		c2.36,2.69,5.58,4.03,9.68,4.03c3.54,0,6.38-0.86,8.54-2.58s3.43-4.12,3.84-7.19H110.74z"/>
	<path class="st1" d="M146.55,13.53c-1.98-1.99-4.57-2.99-7.78-2.99c-2.26,0-4.14,0.48-5.64,1.43c-1.5,0.96-2.57,2.06-3.2,3.32
		h-0.23V0h-6.43v23.3v18.35h6.43V23.39c0-0.03,0.01-0.06,0.01-0.09c0.02-2.08,0.59-3.8,1.73-5.13c1.16-1.35,2.83-2.03,5.01-2.03
		c2.01,0,3.62,0.6,4.84,1.8c1.22,1.2,1.83,2.98,1.83,5.33v0.03v18.35h6.4V23.3v-1.33C149.52,18.34,148.53,15.52,146.55,13.53z"/>
	<path class="st1" d="M184.56,6.12c-2.94-3.21-6.95-4.81-12.03-4.81c-5.06,0-9.08,1.6-12.04,4.81c-2.97,3.21-4.45,7.61-4.45,13.22
		v3.97v1.45c0,5.56,1.46,9.9,4.39,13.01c2.93,3.11,6.94,4.67,12.04,4.67c5.1,0,9.12-1.56,12.07-4.68c2.95-3.12,4.42-7.45,4.42-13
		V23.3v-3.97C188.96,13.73,187.5,9.32,184.56,6.12z M182.3,24.75c0,3.96-0.9,6.97-2.7,9.01c-1.8,2.05-4.16,3.07-7.1,3.07
		s-5.31-1.03-7.12-3.09c-1.81-2.06-2.71-5.06-2.71-9V23.3v-4.03c0-3.96,0.91-7.01,2.72-9.14c1.82-2.13,4.18-3.2,7.1-3.2
		s5.28,1.07,7.09,3.2c1.81,2.14,2.71,5.18,2.71,9.14v4.03V24.75z"/>
	<path class="st1" d="M209.92,10.58c-1.93,0-3.52,0.45-4.75,1.36c-1.24,0.91-2.1,1.94-2.58,3.1h-0.23v-4.03h-6.43V23.3v18.35h6.52
		V23.5c0-0.07,0.01-0.13,0.01-0.2c0.03-2.14,0.56-3.86,1.61-5.13c1.08-1.31,2.84-1.97,5.28-1.97c1.26,0,2.17,0.08,2.75,0.23v-5.68
		C211.49,10.64,210.77,10.58,209.92,10.58z"/>
	<polygon class="st1" points="0,2.09 0,7.71 11.62,7.71 11.62,18.76 11.62,34.95 11.62,41.65 11.62,41.86 11.62,52.86 18.14,52.86 
		18.14,41.65 18.14,39.56 18.14,18.76 18.14,7.71 29.77,7.71 29.77,2.09 	"/>
	<path class="st1" d="M236.9,11.01v4.43h-0.23c-0.68-1.41-1.81-2.57-3.39-3.48c-1.58-0.91-3.39-1.36-5.42-1.36
		c-3.61,0-6.51,1.25-8.68,3.74c-1.92,2.21-2.99,5.19-3.21,8.96c-0.03,0.49-0.05,0.99-0.05,1.51v2.2c0,4.54,1.09,8.06,3.26,10.55
		c2.17,2.49,5.07,3.74,8.68,3.74c2.05,0,3.85-0.46,5.42-1.38c1.56-0.92,2.66-2.07,3.27-3.46h0.23v4.43c0,1.12-0.17,2.12-0.5,2.99
		c-1.33,1.8-3.46,2.98-5.87,2.98H28.2v1.04v4.96h201.34c1.78,0,3.46-0.23,5.06-0.7s3.04-1.15,4.35-2.07c1.3-0.92,2.34-2.14,3.1-3.67
		c0.76-1.53,1.14-3.28,1.14-5.25V23.3v-4.54v-7.75H236.9z M236.79,26.95c0,2.92-0.62,5.19-1.87,6.83c-1.25,1.63-2.97,2.45-5.17,2.45
		c-2.3,0-4.09-0.82-5.36-2.45c-1.28-1.63-1.91-3.91-1.91-6.83v-1.83c0-0.64,0.04-1.25,0.09-1.83c0.22-2.1,0.82-3.79,1.82-5.04
		c1.28-1.6,3.06-2.41,5.36-2.41c2.15,0,3.86,0.83,5.13,2.49c0.99,1.29,1.59,2.94,1.81,4.96c0.06,0.58,0.1,1.19,0.1,1.83V26.95z"/>
</g>
</svg>
